<svg xmlns="http://www.w3.org/2000/svg" viewBox="0 0 171.67 455.9" id="cute-bass">
  <g>
    <g>
      <path fill="#fff" d="M121.81 433.67a4.2 4.2 0 00.52-.26c14-6.82 24.86-17.44 30.6-30.13a49.82 49.82 0 004.49-20.6 51.19 51.19 0 00-10.9-31.26s-.21-.29-.3-.41l0 0c-.3-.35-.58-.7-.86-1.05l-.81-1c-.11-.12-.22-.25-.34-.37-6.13-7.68-10.89-15.61-10.24-25.58.35-5.21 3-10.89 5-15.45a30.69 30.69 0 002.65-9.06 20.45 20.45 0 00.18-2.06 27.2 27.2 0 00-.08-3.6 27.86 27.86 0 00-6.54-15.69c-3.46-4-8.84-3.48-10.23 2.09-1.35 5.39-2.72 11.1-6.63 15.15a16.34 16.34 0 01-10.9 5.11c-.36 0-.71 0-1 0a14.5 14.5 0 01-7.56-2.67L98.56 273v-3.72l-.14-15.58v-.93l0-2.78-.14-15.26 0-3.71L98.05 216v-3.72l-.14-15.21v-.93l0-1.86v-.93l-.11-12.22v-3.71l-.1-11v-.92l0-1.86v-.93l-.09-11v-.93l0-1.86v-.93L97.32 136v-3.71l-.11-12.11V116.5l-.09-10v-.92l0-2.79L97 94.26v-.93l0-1.86v-.93l-.09-10.43a6 6 0 003.84-1.79c2.31-2.48 1.07-6.73.51-9.59q-.93-4.71-1.88-9.4c-1.21-6-2.41-12-3.52-18.09-.27-1.45-.54-2.91-.8-4.37L94.11 32c4.73-7.68.69-17.76-9.16-17.76a9.73 9.73 0 00-6.67 2.95C76.55 18.9 76 21 75.4 23.3c-.41 1.68-.77 3.38-1.11 5.09C73 35 71.87 41.68 70.8 48.34 70 53.22 69.29 58.11 68.52 63c-.68 4.39-1.18 7.28-1.48 9.16A6.9 6.9 0 0072 79.94a6.35 6.35 0 001.13.19L73 90.54v.93l0 1.86v.93l-.07 8.51v.93l0 1.86v.92l-.09 10v3.71l-.11 12.11v.93l0 2.78-.11 12.1 0 2.79v.93l-.11 11v3.71l-.11 11 0 3.71-.11 12.22 0 2.79v.93l-.14 15.21 0 2.79V216L71.72 231v3.71l-.14 15.26 0 3.71-.14 15.58 0 3.72-.06 6.27c-4.17 2.65-8.48 4.19-13.69 2.1s-7.71-6-10.19-10.85c-1.82-3.62-3.82-12.24-8.21-13.25-3.25-.75-5.8 2.8-7.09 5.94-4.52 11.11-5.78 24.57-2.42 36.21 3 10.44 8.4 20.6 5.45 31.9-2.1 8.05-6.84 15.09-11.31 21.94-.1.17-.23.34-.35.51s-.28.42-.41.62a1.1 1.1 0 01-.09.14 50.7 50.7 0 00-8.72 28.2c0 13 5.1 25 13.72 34.73 13 14.69 34.08 24.24 57.86 24.24A83.11 83.11 0 00121.81 433.67zM63.55 34.64a5.36 5.36 0 10-4.83-5.84A5.36 5.36 0 0063.55 34.64zM61.08 50.45a5.36 5.36 0 10-4.83-5.84A5.37 5.37 0 0061.08 50.45z"></path>
      <path fill="#fff" d="M158,343c-.11-.16-.21-.3-.31-.42l-.33-.47-.42-.48-.45-.54-1.12-1.42-.37-.41c-5.24-6.62-7.17-11-6.89-15.36.17-2.51,2.15-6.92,3.59-10.14l.21-.46a45.13,45.13,0,0,0,3.78-13.09c.14-1.07.23-2.14.27-3.18a39.63,39.63,0,0,0-.11-5.46,42.13,42.13,0,0,0-10-23.81,21.09,21.09,0,0,0-15.86-7.55,19.25,19.25,0,0,0-17.28,10.89l-.51-58L112,181l0-2.76-.41-45.16-.34-39,0-2.79,0-3.37c7-7.62,5-17.15,4.17-21.22l-.16-.77c-.62-3.16-1.25-6.31-1.89-9.47-1.09-5.41-2.35-11.7-3.48-17.86-.27-1.43-.88-4.82-.88-4.82a26.18,26.18,0,0,0-1.78-21.16A24.94,24.94,0,0,0,85,0,23.78,23.78,0,0,0,68.3,7a21.79,21.79,0,0,0-2.36,2.76h-.06c-.61-.06-1.23-.09-1.83-.09A19.53,19.53,0,0,0,44.53,27.47a19.78,19.78,0,0,0,.61,6.94,19.67,19.67,0,0,0-2.41,16,19.63,19.63,0,0,0,11,29.27,21.24,21.24,0,0,0,5.07,8.47l0,5-.08,9.42,0,2.8-.12,13.73L58.22,148l-.14,14.66v2.79l-.25,27.81-.37,40.37L57.24,257c-2.56-5.45-6.83-11.83-14.83-13.67a17.79,17.79,0,0,0-4.1-.47c-8.33,0-15.59,5.57-19.4,14.92-6,14.67-7,31.27-2.92,45.53.76,2.62,1.6,5.1,2.42,7.5,2.57,7.55,4.09,12.4,2.93,16.85-1.42,5.45-5,11-8.86,16.84l-.53.81-.19.27c-.26.38-.5.75-.74,1.12l-.12.2A65.05,65.05,0,0,0,0,382.68c0,16.11,6,31.38,17.3,44.18,16.35,18.46,41.33,29,68.53,29a97.84,97.84,0,0,0,42.05-9.33l.92-.46c16.93-8.33,30.11-21.45,37.11-36.95a63.86,63.86,0,0,0,5.76-26.48A65.4,65.4,0,0,0,158,343Z"></path>
      <path fill="#fff" d="M58.81,66.27A5.35,5.35,0,1,0,54,60.44,5.35,5.35,0,0,0,58.81,66.27Z"></path>
      <path fill="#636363" d="M145.89,364.49c-5.79,5.94-21.09,3.87-30.51,6.7l-.21.07a13,13,0,0,0-5,2.61c-5,4.53-10.6,8.36-16.94,10.07a27.29,27.29,0,0,1-7.22,1,28.78,28.78,0,0,1-8.86-1.39,38.41,38.41,0,0,1-14-8.25c-4.35-3.91-7.69-5.45-13.72-4.62-3.63.52-7.18,1.62-10.82,2-6,.7-7.75,7.66-13.08,4.75-3-1.64,4.46-8.41,4-11.84-.43-3-11.23-3.53-6.57-11.12a1.1,1.1,0,0,0,.09-.14c.13-.2.26-.41.41-.62a5.16,5.16,0,0,0,.35-.51c4.47-6.85,9.21-13.89,11.31-21.94,2.95-11.3-2.43-21.46-5.45-31.9-3.36-11.64-2.1-25.1,2.42-36.21,1.29-3.14,3.84-6.69,7.09-5.94,4.39,1,6.39,9.63,8.21,13.25,2.48,4.87,4.92,8.74,10.19,10.85,6.46,2.59,11.53-.39,16.68-4.16,4.15-3,9-5.31,10.92.51a44,44,0,0,0,3.69,8.17,35,35,0,0,0,5.73,7.47c3.35,3.27,7.09,5.93,11.73,6.12.34,0,.69,0,1,0a16.34,16.34,0,0,0,10.9-5.11c3.91-4.05,5.28-9.76,6.63-15.15,1.39-5.57,6.77-6.1,10.23-2.09a27.78,27.78,0,0,1,6.53,15.69,25.62,25.62,0,0,1,.09,3.6c0,.69-.09,1.37-.18,2.06a30.69,30.69,0,0,1-2.65,9.06c-2,4.56-4.65,10.24-5,15.45-.65,10,4.11,17.9,10.24,25.58.38.46.76.93,1.15,1.39s.56.7.86,1.05l0,0c.09.12.3.39.3.41s0,.05,0,.06C146.77,352,149.51,361.56,145.89,364.49Z"></path>
      <path fill="#636363" d="M157.42,382.68a49.82,49.82,0,0,1-4.49,20.6c-5.74,12.69-16.63,23.31-30.6,30.13a4.2,4.2,0,0,1-.52.26,83.11,83.11,0,0,1-36,8C62.05,441.65,41,432.1,28,417.41c-8.62-9.75-13.72-21.74-13.72-34.73A50.7,50.7,0,0,1,23,354.48a1.1,1.1,0,0,0,.09-.14c.13-.2.26-.41.41-.62a5.16,5.16,0,0,0,.35-.51c8.77-12.49,22.94-22.07,39.87-26.61a85.93,85.93,0,0,1,22.14-2.88,87.48,87.48,0,0,1,11.66.78,82.45,82.45,0,0,1,20.21,5.38,73.65,73.65,0,0,1,18.24,10.69,63.45,63.45,0,0,1,8.24,8c.12.12.23.25.34.37l.81,1c.28.35.56.7.86,1.05l0,0c.09.12.3.39.3.41A51.19,51.19,0,0,1,157.42,382.68Z"></path>
      <path fill="#4c4c4c" d="M157.42 382.68a49.82 49.82 0 01-4.49 20.6c-5.74 12.69-16.63 23.31-30.6 30.13l-10.39-7.06 3.23-55.09.82-13.91 1.71-27.47.87-14.09 14.55-24.59 8.47 7.24a30.69 30.69 0 01-2.65 9.06c-2 4.56-4.65 10.24-5 15.45-.65 10 4.11 17.9 10.24 25.58.12.12.23.25.34.37l.81 1c.28.35.56.7.86 1.05l0 0c.09.12.3.39.3.41A51.19 51.19 0 01157.42 382.68zM109.39 358.55v10.7a2.15 2.15 0 01-2.15 2.15H73.87a2.12 2.12 0 01-1.51-.63l-5.25-5.26 3.09-2.75 1.52.6v-4.81zM109.39 401v8a2.06 2.06 0 01-1.27.42H69.37a2.13 2.13 0 01-1.64-.76h0l-3.82-3.82 3.66-3.29a2.26 2.26 0 01.81-.73h0a2.12 2.12 0 011-.24h1.56l34.73-3.34z"></path>
      <path fill="#e5e5e5" d="M150,382.68a42.11,42.11,0,0,1-3.84,17.53c-5,11.15-14.81,20.65-27.55,26.77l-.09,0a6.37,6.37,0,0,1-9.12-5.76V358.55H64.53a5.92,5.92,0,0,1-5.92-5.92V293.49a3.77,3.77,0,0,1,3.76-3.77h0c6.39,0,11.58-3.15,16.24-6.56l.51-.36a51.22,51.22,0,0,0,3.29,6.78c.32.55.65,1.09,1,1.62a41.09,41.09,0,0,0,6,7.41c3.14,3.08,7.94,7.09,14.52,8.05a19.51,19.51,0,0,0,2,.19c.32,0,.65,0,1,0h.74a23.86,23.86,0,0,0,16-7.36,26.52,26.52,0,0,0,4.84-7.19,3.05,3.05,0,0,1,5.79,1s0,.06,0,.09a21.69,21.69,0,0,1,.07,2.66,22.54,22.54,0,0,1-2.19,8.41l-.18.41c-2.24,5-5,11.2-5.46,17.58-.84,12.92,5.52,22.78,11.86,30.71l.2.25.22.22.72.92.65.79.09.14.21.24.15.19A44,44,0,0,1,150,382.68Z"></path>
      <path fill="#bfbfbf" d="M133.7 373.77l0 0h0a5 5 0 008.48-3.56A4.93 4.93 0 00141 367h0l-.14-.14-.28-.28-4.25-4.24-6.75 7.33 4.09 4.09zM144.31 383.88h0l0 0 0 0-4.09-4.09-7.12 7 4.12 4.13h0a5 5 0 107.13-7z"></path>
      <circle cx="133.16" cy="366.17" r="4.99" fill="#3f3f3f"></circle>
      <circle cx="136.69" cy="383.31" r="4.99" fill="#3f3f3f"></circle>
      <ellipse cx="124.57" cy="399.47" fill="#bfbfbf" rx="7.5" ry="13.9" transform="rotate(-45 124.563 399.464)"></ellipse>
      <path fill="#999" d="M122.25,404.38c-6.16-6.16-6.92-12.05-5.87-13.1a2.29,2.29,0,0,1,1.53-.39c2.64,0,7.36,1.83,11.57,6.25C134,401.86,126.57,408.7,122.25,404.38Z"></path>
      <ellipse cx="126.45" cy="401.35" fill="#3f3f3f" rx="3.24" ry="2.23" transform="rotate(-45 126.443 401.346)"></ellipse>
      <path fill="#4c4c4c" d="M53.67,418.09a4.46,4.46,0,0,1-6.69,5,62.92,62.92,0,0,1-13.51-11.19,52.5,52.5,0,0,1-8-11.54,14.79,14.79,0,0,1,2.5-17l7-7.26A4.46,4.46,0,0,1,42.46,378Z"></path>
      <path fill="#bfbfbf" d="M109.39,355.82v2.73H71.72v-2.73a2.15,2.15,0,0,1,2.15-2.15h27.52c1-2.05,2.2-4.48,2.2-4.48l5,4.93A2.14,2.14,0,0,1,109.39,355.82Z"></path>
      <rect width="37.67" height="17.72" x="66.51" y="348.49" fill="#999" rx="2.31"></rect>
      <path fill="#4c4c4c" d="M105.39,417.69v0l-3.73-3.75L99.84,417H73.58a3.06,3.06,0,0,0-3.07,3.07V422c0,2.77,8.06,12.82,18,12.82s18-10.05,18-12.82v-1.94A3,3,0,0,0,105.39,417.69Z"></path>
      <path fill="#999" d="M99.46,413H69.58a3.06,3.06,0,0,0-3.07,3.07V418c0,2.77,8.06,12.82,18,12.82s18-10.05,18-12.82v-1.94A3.06,3.06,0,0,0,99.46,413Z"></path>
      <path fill="#bfbfbf" d="M103.93,306.66v5a4.26,4.26,0,0,1-5,4.19L75.38,311.6l-2.45-1.08,2.45-12.23,6.15-.21c.65.44,1.28-2.58,1.92-6.88a41.09,41.09,0,0,0,6,7.41C92.55,301.69,97.35,305.7,103.93,306.66Z"></path>
      <path fill="#ed8c45" d="M98.86,306.52a5.1,5.1,0,0,1-5.1,5.14H76.14a5.1,5.1,0,0,1-5.1-5.14l.3-33.57,0-3.72.14-15.58,0-3.71.14-15.26V231L71.85,216v-.93l0-2.79L72,197.11v-.93l0-2.79.11-12.22,0-3.71.11-11V162.8l.11-11v-.93l0-2.79L72.58,136l0-2.79v-.93l.11-12.11V116.5l.09-10v-.92l0-1.86v-.93L73,94.26v-.93l0-1.86v-.93l.16-17.8H96.76l.15,17.8v.93l0,1.86v.93l.07,8.51,0,2.79v.92l.09,10v3.71l.11,12.11V136l.11,12.09v.93l0,1.86v.93l.09,11v.93l0,1.86v.92l.1,11v3.71l.11,12.22v.93l0,1.86v.93L98,212.32V216L98.18,231l0,3.71.14,15.26,0,2.78v.93l.14,15.58V273Z"></path>
      <polygon fill="#d37637" points="96.96 94.26 72.95 94.26 72.96 93.33 72.98 91.47 72.99 90.54 96.91 90.54 96.92 91.47 96.95 93.33 96.96 94.26"></polygon>
      <polygon fill="#d37637" points="97.06 106.48 72.83 106.48 72.84 105.56 72.87 103.7 72.88 102.77 97.03 102.77 97.05 105.56 97.06 106.48"></polygon>
      <polygon fill="#d37637" points="97.18 120.22 72.72 120.22 72.73 119.29 72.74 117.43 72.75 116.5 97.15 116.5 97.16 117.43 97.17 119.29 97.18 120.22"></polygon>
      <polygon fill="#d37637" points="97.32 136.03 72.58 136.03 72.6 133.25 72.61 132.32 97.3 132.32 97.3 133.25 97.31 135.11 97.32 136.03"></polygon>
      <polygon fill="#d37637" points="97.47 151.85 72.44 151.85 72.44 150.92 72.47 148.13 97.43 148.13 97.44 149.06 97.46 150.92 97.47 151.85"></polygon>
      <polygon fill="#d37637" points="97.6 166.51 72.31 166.51 72.31 165.59 72.32 163.73 72.33 162.8 97.56 162.8 97.57 163.73 97.59 165.59 97.6 166.51"></polygon>
      <polygon fill="#d37637" points="97.73 181.17 72.17 181.17 72.2 177.46 97.7 177.46 97.71 178.39 97.72 180.24 97.73 181.17"></polygon>
      <polygon fill="#d37637" points="97.88 197.1 72.03 197.1 72.04 196.18 72.06 193.39 97.84 193.39 97.85 194.32 97.87 196.18 97.88 197.1"></polygon>
      <polygon fill="#d37637" points="98.05 216.04 71.85 216.04 71.86 215.11 71.89 212.32 98.02 212.32 98.03 213.25 98.04 215.11 98.05 216.04"></polygon>
      <polygon fill="#d37637" points="98.22 234.68 71.69 234.68 71.7 233.75 71.71 231.9 71.72 230.97 98.18 230.97 98.22 234.68"></polygon>
      <polygon fill="#d37637" points="98.39 253.65 71.52 253.65 71.55 249.94 98.35 249.94 98.38 252.72 98.39 253.65"></polygon>
      <polygon fill="#d37637" points="98.56 272.95 71.34 272.95 71.38 269.23 98.53 269.23 98.54 270.16 98.55 272.02 98.56 272.95"></polygon>
      <rect width="1.39" height="10.93" x="74.17" y="405.49" fill="#ffe9f6"></rect>
      <rect width="1.39" height="10.93" x="81.1" y="405.49" fill="#ffe9f6"></rect>
      <rect width="1.39" height="10.93" x="87.78" y="405.49" fill="#ffe9f6"></rect>
      <rect width="1.39" height="10.93" x="94.71" y="405.49" fill="#ffe9f6"></rect>
      <rect width="43.05" height="8.85" x="63.22" y="396.64" fill="#999" rx="2.31"></rect>
      <path fill="#bfbfbf" d="M77.51 417.35c0 2.8-1.18 6.28-2.64 6.28s-2.64-3.48-2.64-6.28 1.18-2.84 2.64-2.84S77.51 414.55 77.51 417.35zM84.44 417.35c0 2.8-1.18 9.92-2.64 9.92s-2.64-7.12-2.64-9.92 1.18-2.84 2.64-2.84S84.44 414.55 84.44 417.35zM91.11 417.35c0 2.8-1.18 9.92-2.64 9.92s-2.64-7.12-2.64-9.92 1.19-2.84 2.64-2.84S91.11 414.55 91.11 417.35zM98.05 417.35c0 2.8-1.18 6.28-2.64 6.28s-2.64-3.48-2.64-6.28 1.18-2.84 2.64-2.84S98.05 414.55 98.05 417.35zM107.68 331.5h0l-.12-.12-.17-.17-4.11-4.12L101 329.29l.51.86H73.71a3.73 3.73 0 00-2 .59l-.85-.59-4.23 2.17 4.23 4.23h0a3.82 3.82 0 002.85 1.29h31.07a3.82 3.82 0 002.9-6.33z"></path>
      <rect width="38.74" height="7.68" x="65.55" y="325.83" fill="#3f3f3f" rx="2.16"></rect>
      <circle cx="64.05" cy="29.31" r="5.36" fill="#bfbfbf"></circle>
      <circle cx="61.59" cy="45.11" r="5.36" fill="#bfbfbf"></circle>
      <circle cx="59.31" cy="60.94" r="5.36" fill="#bfbfbf"></circle>
      <path fill="#636363" d="M96.24,80.17H73.6A6.3,6.3,0,0,1,72,79.94,6.9,6.9,0,0,1,67,72.15c.3-1.88.79-4.77,1.48-9.16.77-4.88,1.5-9.77,2.28-14.65,1.07-6.66,2.16-13.33,3.49-20,.34-1.71.7-3.41,1.11-5.09.55-2.3,1.15-4.4,2.88-6.1A9.73,9.73,0,0,1,85,14.25c9.85,0,13.89,10.08,9.16,17.76L95,36.87c.26,1.46.53,2.92.8,4.37,1.11,6,2.31,12.07,3.52,18.09q.94,4.7,1.88,9.4c.56,2.86,1.8,7.11-.51,9.59A6.07,6.07,0,0,1,96.24,80.17Z"></path>
      <circle cx="77.68" cy="61.33" r="3.97" fill="#4c4c4c"></circle>
      <circle cx="79.26" cy="47.92" r="3.97" fill="#4c4c4c"></circle>
      <circle cx="81.23" cy="34.5" r="3.97" fill="#4c4c4c"></circle>
      <rect width="331.83" height="1.39" x="-90.13" y="234.37" fill="#ffe9f6" transform="rotate(-89.7 75.788 235.064)"></rect>
      <rect width="331.83" height="1.39" x="-83.85" y="234.37" fill="#ffe9f6" transform="rotate(-89.93 82.049 235.059)"></rect>
      <rect width="1.39" height="331.83" x="93.8" y="69.15" fill="#ffe9f6" transform="rotate(-.32 94.246 233.028)"></rect>
      <rect width="1.39" height="331.83" x="87.52" y="69.15" fill="#ffe9f6" transform="rotate(-.09 88.942 235.62)"></rect>
    </g>
  </g>
</svg>
